<?xml version="1.0" encoding="utf-8"?>
<!-- Generator: Adobe Illustrator 25.2.1, SVG Export Plug-In . SVG Version: 6.00 Build 0)  -->
<svg version="1.1" id="Camada_1" xmlns="http://www.w3.org/2000/svg" xmlns:xlink="http://www.w3.org/1999/xlink" x="0px" y="0px"
	 viewBox="0 0 2000 2000" style="enable-background:new 0 0 2000 2000;" xml:space="preserve">
<style type="text/css">
	.st0{display:none;}
	.st1{display:inline;fill:#FFFFFF;}
	.st2{display:inline;}
	.st3{fill:#FFFFFF;}
</style>
<g class="st0">
	<path class="st1" d="M1317.6,737.13c0,31.53-25.56,57.09-57.09,57.09s-57.09-25.56-57.09-57.09c0-31.53,25.56-57.09,57.09-57.09
		S1317.6,705.59,1317.6,737.13z M1246.51,993.07c0,132.24-107.58,239.83-239.81,239.83c-132.24,0-239.83-107.59-239.83-239.83
		c0-132.23,107.59-239.81,239.83-239.81C1138.93,753.26,1246.51,860.84,1246.51,993.07z M1160.32,993.07
		c0-84.7-68.92-153.62-153.62-153.62c-84.71,0-153.63,68.92-153.63,153.62c0,84.72,68.92,153.63,153.63,153.63
		C1091.4,1146.7,1160.32,1077.79,1160.32,993.07z M1492.1,800.41c0-161.54-130.97-292.51-292.52-292.51H800.42
		c-161.55,0-292.52,130.96-292.52,292.51v399.18c0,161.55,130.97,292.51,292.52,292.51h399.16c161.55,0,292.52-130.96,292.52-292.51
		V800.41z M1396.08,1195.19c0,110.95-89.95,200.9-200.9,200.9H804.83c-110.96,0-200.91-89.95-200.91-200.9V804.81
		c0-110.95,89.94-200.9,200.91-200.9h390.35c110.95,0,200.9,89.94,200.9,200.9V1195.19z"/>
</g>
<g class="st0">
	<g class="st2">
		<path class="st3" d="M1184.77,1061.32c-19.91-11.92-45.83-25.22-69.29-15.61c-18,7.37-29.49,35.54-41.15,49.93
			c-5.99,7.38-13.14,8.54-22.33,4.84c-67.56-26.91-119.35-72.03-156.63-134.18c-6.31-9.67-5.18-17.28,2.43-26.23
			c11.27-13.26,25.41-28.32,28.46-46.2c3.04-17.87-5.34-38.77-12.73-54.68c-9.43-20.34-20-49.34-40.37-60.85
			c-18.73-10.57-43.4-4.65-60.08,8.94c-28.79,23.45-42.69,60.19-42.27,96.61c0.11,10.35,1.39,20.67,3.81,30.66
			c5.81,24.02,16.9,46.45,29.41,67.78c9.41,16.08,19.65,31.68,30.7,46.7c36.14,49.1,81.11,91.76,133.16,123.64
			c26.02,15.93,54.03,29.91,83.05,39.49c32.54,10.75,61.54,21.95,96.68,15.27c36.78-6.98,73.05-29.75,87.65-65.2
			c4.32-10.49,6.49-22.18,4.06-33.27C1234.35,1086.04,1203.31,1072.4,1184.77,1061.32z"/>
	</g>
	<g class="st2">
		<path class="st3" d="M1004.78,510.15c-266.82,0-483.89,217.07-483.89,483.88c0,81.61,20.93,162.02,60.7,233.76l-70.25,262.06
			l263.42-70.57c70.81,38.41,149.92,58.64,230.02,58.64c266.8,0,483.88-217.08,483.88-483.89
			C1488.66,727.21,1271.58,510.15,1004.78,510.15z M1004.78,1386.45c-70.16,0-139.43-19.18-200.33-55.48l-16.59-9.89l-147.14,39.43
			l39.21-146.32l-10.18-16.71c-37.54-61.65-57.38-132-57.38-203.45c0-216.39,176.04-392.42,392.42-392.42
			c216.37,0,392.42,176.03,392.42,392.42S1221.15,1386.45,1004.78,1386.45z"/>
	</g>
</g>
<path class="st3" d="M1000,486.76c-283.45,0-513.24,229.79-513.24,513.24c0,283.46,229.79,513.24,513.24,513.24
	c283.46,0,513.24-229.78,513.24-513.24C1513.24,716.55,1283.46,486.76,1000,486.76z M1236.1,1228.39
	c-10.27,15.4-28.23,20.53-43.63,10.27c-120.61-74.42-272.02-89.81-451.66-48.76c-17.97,5.13-33.36-7.69-38.49-23.09
	c-5.13-17.97,7.7-33.37,23.1-38.49c195.03-43.63,364.4-25.66,497.84,56.45C1241.22,1192.47,1243.79,1212.99,1236.1,1228.39z
	 M1297.68,1087.25c-12.83,17.97-35.92,25.67-53.89,12.84c-138.58-84.69-349-110.35-510.68-59.03c-20.53,5.13-43.63-5.14-48.76-25.66
	c-5.13-20.53,5.14-43.63,25.66-48.76c187.33-56.45,418.29-28.23,577.41,69.29C1302.81,1043.63,1310.51,1069.29,1297.68,1087.25z
	 M1302.81,943.54c-164.23-97.51-438.81-107.78-595.35-59.03c-25.66,7.7-51.33-7.69-59.03-30.79c-7.7-25.66,7.69-51.32,30.8-59.03
	c182.2-53.89,482.45-43.63,672.35,69.29c23.1,12.83,30.79,43.63,17.97,66.72C1356.71,948.68,1325.91,956.37,1302.81,943.54z"/>
</svg>
