<?xml version="1.0" encoding="utf-8"?>
<!-- Generator: Adobe Illustrator 25.2.1, SVG Export Plug-In . SVG Version: 6.00 Build 0)  -->
<svg version="1.1" id="Camada_1" xmlns="http://www.w3.org/2000/svg" xmlns:xlink="http://www.w3.org/1999/xlink" x="0px" y="0px"
	 viewBox="0 0 2000 2000" style="enable-background:new 0 0 2000 2000;" xml:space="preserve">
<g>
	<g>
		<path d="M131.58,1155.15l19.46-23.24c3.55-4.24,9.72-5.01,14.29-1.9c19.09,12.99,39.56,19.79,61.2,19.79
			c16.13,0,24.65-5.48,24.65-14.61c0-10.04-7.3-11.56-36.21-18.26c-45.34-10.35-80.34-22.22-80.34-65.73
			c0-41.69,32.87-68.77,82.46-68.77c31.81,0,57.52,7.51,78.98,21.92c4.92,3.31,6.02,10.11,2.59,14.95l-17.47,24.68
			c-3.28,4.63-9.55,5.79-14.42,2.86c-17.07-10.28-35.03-15.42-51.2-15.42c-14.3,0-21.3,5.78-21.3,13.69c0,10.65,7.3,14,37.13,20.39
			c48.69,10.35,79.12,23.43,79.12,63.3c0,44.12-33.77,69.99-86.11,69.99c-33.76,0-65.82-9.5-91.15-28.28
			C128.36,1166.89,127.67,1159.82,131.58,1155.15z"/>
		<path d="M441.86,1090.46c0-58.73,52.04-108.03,113.81-108.03s113.81,49.3,113.81,108.03c0,58.73-52.03,108.33-113.81,108.33
			S441.86,1149.19,441.86,1090.46z M608.62,1090.46c0-29.51-24.35-54.47-52.95-54.47c-28.61,0-52.95,24.95-52.95,54.47
			c0,29.82,24.35,54.78,52.95,54.78C584.27,1145.24,608.62,1120.29,608.62,1090.46z"/>
		<path d="M811.53,986.09h42.06c3.87,0,7.44,2.09,9.33,5.47l43.59,77.71c4.09,7.29,14.58,7.29,18.67,0l43.6-77.71
			c1.89-3.38,5.46-5.47,9.33-5.47h42.06c5.91,0,10.7,4.79,10.7,10.7v187.65c0,5.91-4.79,10.7-10.7,10.7h-37.63
			c-5.91,0-10.7-4.79-10.7-10.7v-60.34c0-11.02-14.64-14.84-20.03-5.24l-26.63,47.47c-4.09,7.29-14.58,7.29-18.67,0l-26.63-47.46
			c-5.39-9.61-20.03-5.78-20.03,5.24v60.33c0,5.91-4.79,10.7-10.7,10.7h-37.63c-5.91,0-10.7-4.79-10.7-10.7V996.79
			C800.82,990.88,805.62,986.09,811.53,986.09z"/>
		<path d="M1298.74,1167.15h-57.97c-4.44,0-8.42,2.74-10,6.9l-5.4,14.2c-1.58,4.15-5.56,6.9-10,6.9h-43.69
			c-7.51,0-12.68-7.53-9.99-14.54l72.11-187.65c1.59-4.13,5.56-6.86,9.99-6.86h51.94c4.43,0,8.4,2.73,9.99,6.86l72.11,187.65
			c2.69,7.01-2.48,14.54-9.99,14.54h-43.69c-4.44,0-8.42-2.74-10-6.9l-5.4-14.2C1307.17,1169.89,1303.19,1167.15,1298.74,1167.15z
			 M1285.67,1113.95l-9.15-23.89c-2.33-6.09-10.94-6.11-13.31-0.03l-9.3,23.89c-1.82,4.68,1.63,9.72,6.65,9.72h18.45
			C1284.01,1123.63,1287.46,1118.62,1285.67,1113.95z"/>
		<g>
			<path d="M1799.39,1157.78h-280.05c-5.91,0-10.7,4.79-10.7,10.7v17.23c0,5.91,4.79,10.7,10.7,10.7h280.05
				c5.91,0,10.7-4.79,10.7-10.7v-17.23C1810.09,1162.57,1805.3,1157.78,1799.39,1157.78z"/>
			<path d="M1827.91,1095.3c0-11.18,9.5-21.05,21.99-21.05c11.55,0,21.05,9.88,21.05,21.05c0,12.11-9.5,21.98-21.05,21.98
				C1837.41,1117.29,1827.91,1107.41,1827.91,1095.3z"/>
			<path d="M1517.89,1050.96c0-35.95,31.86-66.14,69.68-66.14c15.69,0,30.29,5.13,42.04,13.73c5.58,4.08,6.02,12.24,0.82,16.79
				l-10.02,8.76c-3.88,3.39-9.6,3.5-13.66,0.32c-5.42-4.24-12.12-6.8-19.18-6.8c-17.51,0-32.42,15.27-32.42,33.35
				c0,18.26,14.91,33.54,32.42,33.54c7.22,0,13.88-2.59,19.34-6.86c4.05-3.17,9.77-3.05,13.64,0.33l9.93,8.67
				c5.19,4.53,4.76,12.66-0.78,16.77c-11.77,8.72-26.4,13.88-42.13,13.88C1549.75,1117.29,1517.89,1086.92,1517.89,1050.96z"/>
			<path d="M1660.6,1050.96c0-35.95,31.86-66.14,69.68-66.14c37.82,0,69.68,30.18,69.68,66.14c0,35.96-31.86,66.33-69.68,66.33
				C1692.46,1117.29,1660.6,1086.92,1660.6,1050.96z M1762.7,1050.96c0-18.07-14.91-33.35-32.42-33.35
				c-17.51,0-32.42,15.27-32.42,33.35c0,18.26,14.91,33.54,32.42,33.54C1747.79,1084.5,1762.7,1069.22,1762.7,1050.96z"/>
		</g>
	</g>
	<g>
		<path d="M135.04,866.75l4.18-4.99c2.05-2.44,5.57-2.92,8.27-1.22c6.65,4.19,13.65,6.46,21.23,6.46c6.34,0,9.78-2.11,9.78-6v-0.22
			c0-3.56-2.67-5.67-14.23-8.34c-17.23-3.89-29.79-8.67-29.79-25.23v-0.22c0-14.89,11.89-25.56,30.79-25.56
			c10.71,0,19.55,2.36,27.17,6.92c3.08,1.84,3.81,6.01,1.75,8.94l-3.7,5.27c-1.87,2.66-5.44,3.4-8.29,1.83
			c-5.91-3.25-11.9-4.96-17.47-4.96c-5.67,0-8.56,2.45-8.56,5.56v0.22c0,4.11,2.78,5.56,14.78,8.56
			c18.23,4.22,29.23,9.89,29.23,25.01V859c0,16.56-13,26.01-32.12,26.01c-11.55,0-22.51-2.91-31.54-8.84
			C133.31,874.06,132.57,869.68,135.04,866.75z"/>
		<path d="M242,802.76h51.61c3.49,0,6.32,2.83,6.32,6.32v5.71c0,3.49-2.83,6.32-6.32,6.32h-30.38c-3.49,0-6.32,2.83-6.32,6.32v0.59
			c0,3.49,2.83,6.32,6.32,6.32h26.05c3.49,0,6.32,2.83,6.32,6.32v4.6c0,3.49-2.83,6.32-6.32,6.32h-26.05
			c-3.49,0-6.32,2.83-6.32,6.32v1.15c0,3.49,2.83,6.32,6.32,6.32h30.94c3.49,0,6.32,2.83,6.32,6.32v5.71c0,3.49-2.83,6.32-6.32,6.32
			H242c-3.49,0-6.32-2.83-6.32-6.32v-68.28C235.69,805.59,238.51,802.76,242,802.76z"/>
		<path d="M337.64,809.08c0-3.49,2.83-6.32,6.32-6.32h31.69c12,0,20.34,3,25.78,8.67c4.78,4.56,7.11,10.78,7.11,18.67v0.33
			c0,10.08-4.23,17.23-11.18,21.9c-2.89,1.94-3.62,5.88-1.65,8.76l8.71,12.69c2.88,4.19-0.12,9.89-5.21,9.89h-9.51
			c-2.12,0-4.09-1.06-5.26-2.82l-12.7-19.14c-1.17-1.76-3.15-2.82-5.26-2.82h-1.08c-3.49,0-6.32,2.83-6.32,6.32v12.15
			c0,3.49-2.83,6.32-6.32,6.32h-8.82c-3.49,0-6.32-2.83-6.32-6.32V809.08z M374.65,841.77c7.89,0,12.34-3.89,12.34-10v-0.22
			c0-6.67-4.67-10.11-12.56-10.11h-9.02c-3.49,0-6.32,2.83-6.32,6.32v7.71c0,3.49,2.83,6.32,6.32,6.32H374.65z"/>
		<path d="M444.08,802.76h10.12c2.66,0,5.03,1.66,5.94,4.16l11.56,31.83c2.01,5.55,9.86,5.55,11.87,0l11.56-31.83
			c0.91-2.5,3.28-4.16,5.94-4.16h9.68c4.47,0,7.53,4.52,5.86,8.67l-27.7,68.83c-0.96,2.39-3.28,3.96-5.86,3.96h-11.25
			c-2.58,0-4.9-1.57-5.86-3.96l-27.7-68.83C436.55,807.29,439.61,802.76,444.08,802.76z"/>
		<path d="M558.26,802.76h8.93c3.49,0,6.32,2.83,6.32,6.32v68.28c0,3.49-2.83,6.32-6.32,6.32h-8.93c-3.49,0-6.32-2.83-6.32-6.32
			v-68.28C551.94,805.59,554.77,802.76,558.26,802.76z"/>
		<path d="M619.42,802.76h10.6c1.95,0,3.79,0.9,4.99,2.44l21.03,27.11c3.69,4.75,11.31,2.15,11.31-3.87v-19.36
			c0-3.49,2.83-6.32,6.32-6.32h8.6c3.49,0,6.32,2.83,6.32,6.32v68.28c0,3.49-2.83,6.32-6.32,6.32h-9.26c-1.95,0-3.79-0.9-4.99-2.44
			l-22.37-28.8c-3.69-4.75-11.3-2.14-11.3,3.87v21.05c0,3.49-2.83,6.32-6.32,6.32h-8.6c-3.49,0-6.32-2.83-6.32-6.32v-68.28
			C613.1,805.59,615.93,802.76,619.42,802.76z"/>
		<path d="M724.46,843.44v-0.22c0-23.45,18.45-42.01,43.34-42.01c11.11,0,19.52,2.65,26.74,7.25c3.25,2.07,4.04,6.47,1.58,9.44
			l-4.74,5.72c-2.04,2.47-5.6,2.99-8.29,1.26c-4.42-2.84-9.11-4.45-15.4-4.45c-12,0-21.12,10.11-21.12,22.78v0.22
			c0,13.45,9.34,23.12,22.34,23.12c3.86,0,7.2-0.57,10.07-1.7c2.31-0.91,3.71-3.28,3.71-5.76l0,0c0-3.49-2.83-6.32-6.32-6.32h-3.59
			c-3.49,0-6.32-2.83-6.32-6.32v-3.6c0-3.49,2.83-6.32,6.32-6.32h24.04c3.49,0,6.32,2.83,6.32,6.32v26.74
			c0,2.04-0.99,3.93-2.63,5.14c-8.2,6.07-19.07,10.48-32.38,10.48C742.91,885.23,724.46,867.89,724.46,843.44z"/>
		<path d="M894.37,843.44v-0.22c0-23.45,18.45-42.01,43.34-42.01c11.11,0,19.52,2.65,26.74,7.25c3.25,2.07,4.04,6.47,1.58,9.44
			l-4.74,5.72c-2.04,2.47-5.6,2.99-8.29,1.26c-4.42-2.84-9.11-4.45-15.4-4.45c-12,0-21.12,10.11-21.12,22.78v0.22
			c0,13.45,9.34,23.12,22.34,23.12c3.86,0,7.2-0.57,10.07-1.7c2.31-0.91,3.71-3.28,3.71-5.76l0,0c0-3.49-2.83-6.32-6.32-6.32h-3.59
			c-3.49,0-6.32-2.83-6.32-6.32v-3.6c0-3.49,2.83-6.32,6.32-6.32h24.04c3.49,0,6.32,2.83,6.32,6.32v26.74
			c0,2.04-0.99,3.93-2.63,5.14c-8.2,6.07-19.07,10.48-32.38,10.48C912.82,885.23,894.37,867.89,894.37,843.44z"/>
		<path d="M1006.74,843.44v-0.22c0-23.23,18.56-42.01,43.57-42.01c24.9,0,43.34,18.67,43.34,41.79v0.22
			c0,23.23-18.56,42.01-43.57,42.01C1025.19,885.23,1006.74,866.56,1006.74,843.44z M1071.53,843.44v-0.22
			c0-12.11-8.67-22.56-21.45-22.56c-12.67,0-21.23,10.23-21.23,22.34v0.22c0,12.12,8.67,22.56,21.45,22.56
			C1063.2,865.78,1071.53,855.55,1071.53,843.44z"/>
		<path d="M1125.62,843.44v-0.22c0-23.23,18.56-42.01,43.57-42.01c24.9,0,43.34,18.67,43.34,41.79v0.22
			c0,23.23-18.56,42.01-43.57,42.01C1144.07,885.23,1125.62,866.56,1125.62,843.44z M1190.41,843.44v-0.22
			c0-12.11-8.67-22.56-21.45-22.56c-12.67,0-21.23,10.23-21.23,22.34v0.22c0,12.12,8.67,22.56,21.45,22.56
			C1182.08,865.78,1190.41,855.55,1190.41,843.44z"/>
		<path d="M1248.42,809.08c0-3.49,2.83-6.32,6.32-6.32h25.03c28.12,0,45.01,16.89,45.01,40.01V843c0,23.12-17.01,40.68-45.35,40.68
			h-24.69c-3.49,0-6.32-2.83-6.32-6.32V809.08z M1269.87,828.19v30.05c0,3.49,2.83,6.32,6.32,6.32h3.8
			c13.78,0,22.78-7.89,22.78-21.12v-0.22c0-13.34-9-21.34-22.78-21.34h-3.8C1272.7,821.88,1269.87,824.71,1269.87,828.19z"/>
		<path d="M1431.24,821.77h-11.6c-3.49,0-6.32-2.83-6.32-6.32v-6.37c0-3.49,2.83-6.32,6.32-6.32h57.39c3.49,0,6.32,2.83,6.32,6.32
			v6.37c0,3.49-2.83,6.32-6.32,6.32h-11.6c-3.49,0-6.32,2.83-6.32,6.32v49.27c0,3.49-2.83,6.32-6.32,6.32h-8.93
			c-3.49,0-6.32-2.83-6.32-6.32v-49.27C1437.56,824.59,1434.73,821.77,1431.24,821.77z"/>
		<path d="M1522.38,802.76h8.93c3.49,0,6.32,2.83,6.32,6.32v68.28c0,3.49-2.83,6.32-6.32,6.32h-8.93c-3.49,0-6.32-2.83-6.32-6.32
			v-68.28C1516.07,805.59,1518.89,802.76,1522.38,802.76z"/>
		<path d="M1583.54,802.76h12.94c2.19,0,4.23,1.14,5.38,3l12.46,20.2c2.46,3.99,8.27,4,10.74,0.01l12.55-20.23
			c1.15-1.86,3.18-2.99,5.37-2.99h12.95c3.49,0,6.32,2.83,6.32,6.32v68.28c0,3.49-2.83,6.32-6.32,6.32h-8.82
			c-3.49,0-6.32-2.83-6.32-6.32V857.1c0-6.28-8.17-8.71-11.6-3.45l-9.52,14.57h-0.44l-9.29-14.28c-3.43-5.27-11.61-2.84-11.61,3.44
			v19.96c0,3.49-2.83,6.32-6.32,6.32h-8.48c-3.49,0-6.32-2.83-6.32-6.32v-68.28C1577.23,805.59,1580.05,802.76,1583.54,802.76z"/>
		<path d="M1708.14,802.76h51.61c3.49,0,6.32,2.83,6.32,6.32v5.71c0,3.49-2.83,6.32-6.32,6.32h-30.38c-3.49,0-6.32,2.83-6.32,6.32
			v0.59c0,3.49,2.83,6.32,6.32,6.32h26.05c3.49,0,6.32,2.83,6.32,6.32v4.6c0,3.49-2.83,6.32-6.32,6.32h-26.05
			c-3.49,0-6.32,2.83-6.32,6.32v1.15c0,3.49,2.83,6.32,6.32,6.32h30.93c3.49,0,6.32,2.83,6.32,6.32v5.71c0,3.49-2.83,6.32-6.32,6.32
			h-52.16c-3.49,0-6.32-2.83-6.32-6.32v-68.28C1701.83,805.59,1704.66,802.76,1708.14,802.76z"/>
		<path d="M1801.57,866.75l4.18-4.99c2.05-2.44,5.57-2.92,8.27-1.22c6.65,4.19,13.65,6.46,21.23,6.46c6.34,0,9.78-2.11,9.78-6v-0.22
			c0-3.56-2.67-5.67-14.23-8.34c-17.22-3.89-29.79-8.67-29.79-25.23v-0.22c0-14.89,11.89-25.56,30.79-25.56
			c10.71,0,19.55,2.36,27.17,6.92c3.08,1.84,3.81,6.01,1.75,8.94l-3.7,5.27c-1.87,2.66-5.44,3.4-8.29,1.83
			c-5.91-3.25-11.9-4.96-17.47-4.96c-5.67,0-8.56,2.45-8.56,5.56v0.22c0,4.11,2.78,5.56,14.78,8.56
			c18.23,4.22,29.23,9.89,29.23,25.01V859c0,16.56-13,26.01-32.12,26.01c-11.55,0-22.51-2.91-31.54-8.84
			C1799.84,874.06,1799.11,869.68,1801.57,866.75z"/>
	</g>
</g>
</svg>
