<?xml version="1.0" encoding="utf-8"?>
<!-- Generator: Adobe Illustrator 25.2.1, SVG Export Plug-In . SVG Version: 6.00 Build 0)  -->
<svg version="1.1" id="Camada_1" xmlns="http://www.w3.org/2000/svg" xmlns:xlink="http://www.w3.org/1999/xlink" x="0px" y="0px"
	 viewBox="0 0 2000 2000" style="enable-background:new 0 0 2000 2000;" xml:space="preserve">
<style type="text/css">
	.st0{fill:#FFFFFF;}
	.st1{fill:#B42127;}
</style>
<g>
	<g>
		<g>
			<g>
				<path class="st0" d="M168.6,1435.11l20.97-25.05c2.04-2.44,5.62-2.88,8.2-1.03c17.27,12.36,35.86,18.85,55.58,18.85
					c14.03,0,21.44-4.76,21.44-12.7c0-8.73-6.35-10.06-31.5-15.88c-39.44-9-69.88-19.32-69.88-57.17
					c0-36.26,28.59-59.82,71.73-59.82c29.03,0,52.21,7.19,71.41,20.96c2.72,1.95,3.33,5.75,1.4,8.47l-18.82,26.58
					c-1.88,2.66-5.51,3.35-8.25,1.59c-15.59-9.99-32.2-14.99-47.06-14.99c-12.44,0-18.53,5.03-18.53,11.91
					c0,9.26,6.35,12.18,32.29,17.73c42.35,9,68.82,20.38,68.82,55.05c0,38.38-29.38,60.88-74.91,60.88
					c-30.6,0-59.59-8.97-82.03-26.7C166.78,1441.67,166.41,1437.73,168.6,1435.11z"/>
				<path class="st0" d="M474.87,1376.26c0-51.08,45.26-93.96,98.99-93.96c53.73,0,98.99,42.88,98.99,93.96
					c0,51.08-45.26,94.23-98.99,94.23C520.13,1470.49,474.87,1427.35,474.87,1376.26z M619.92,1376.26
					c0-25.67-21.17-47.38-46.05-47.38c-24.88,0-46.06,21.7-46.06,47.38c0,25.94,21.18,47.64,46.06,47.64
					C598.75,1423.91,619.92,1402.2,619.92,1376.26z"/>
				<path class="st0" d="M835.88,1285.48h41.69c2.2,0,4.23,1.19,5.31,3.11l41.65,74.24c2.33,4.15,8.3,4.15,10.62,0l41.64-74.24
					c1.08-1.92,3.11-3.11,5.31-3.11h41.69c3.36,0,6.09,2.73,6.09,6.09v169.66c0,3.36-2.73,6.09-6.09,6.09h-39.17
					c-3.36,0-6.09-2.73-6.09-6.09v-68.01c0-6.27-8.33-8.45-11.4-2.98l-31.99,57.02c-2.33,4.15-8.3,4.15-10.62,0l-31.99-57.02
					c-3.07-5.47-11.4-3.29-11.4,2.98v68.01c0,3.36-2.73,6.09-6.09,6.09h-39.17c-3.36,0-6.09-2.73-6.09-6.09v-169.66
					C829.79,1288.2,832.52,1285.48,835.88,1285.48z"/>
				<path class="st0" d="M1304.65,1442.96h-54.86c-2.53,0-4.79,1.56-5.69,3.92l-6.28,16.5c-0.9,2.36-3.16,3.92-5.69,3.92h-44.9
					c-4.27,0-7.22-4.29-5.68-8.27l65.2-169.66c0.9-2.35,3.16-3.91,5.68-3.91h49.6c2.52,0,4.78,1.55,5.68,3.91l65.2,169.66
					c1.53,3.99-1.41,8.27-5.68,8.27h-44.9c-2.53,0-4.79-1.56-5.69-3.92l-6.28-16.5C1309.44,1444.53,1307.17,1442.96,1304.65,1442.96
					z M1291.12,1396.85l-8.13-21.21c-1.99-5.2-9.34-5.22-11.36-0.03l-8.25,21.21c-1.55,3.99,1.39,8.3,5.68,8.3h16.38
					C1289.7,1405.11,1292.64,1400.83,1291.12,1396.85z"/>
				<path class="st0" d="M1525.81,1346.75c0-31.28,27.71-57.53,60.61-57.53c15.3,0,29.4,5.61,40.16,14.77
					c2.83,2.41,2.83,6.78,0.04,9.22l-13.75,12.02c-2.35,2.05-5.8,1.9-8.11-0.19c-4.97-4.5-11.45-7.3-18.33-7.3
					c-15.23,0-28.2,13.29-28.2,29.01c0,15.88,12.96,29.17,28.2,29.17c7,0,13.41-2.8,18.42-7.3c2.34-2.1,5.83-2.25,8.2-0.18
					l13.6,11.87c2.79,2.43,2.79,6.78-0.01,9.2c-10.77,9.3-24.89,14.93-40.21,14.93C1553.52,1404.44,1525.81,1378.03,1525.81,1346.75
					z"/>
				<path class="st0" d="M1649.93,1346.75c0-31.28,27.71-57.53,60.61-57.53c32.9,0,60.61,26.25,60.61,57.53
					c0,31.28-27.71,57.69-60.61,57.69C1677.64,1404.44,1649.93,1378.03,1649.93,1346.75z M1738.74,1346.75
					c0-15.72-12.96-29.01-28.2-29.01s-28.2,13.29-28.2,29.01c0,15.88,12.96,29.17,28.2,29.17S1738.74,1362.63,1738.74,1346.75z"/>
				<path class="st0" d="M1795.44,1385.32c0-9.72,8.27-18.31,19.12-18.31c10.05,0,18.31,8.59,18.31,18.31
					c0,10.53-8.26,19.12-18.31,19.12C1803.71,1404.44,1795.44,1395.85,1795.44,1385.32z"/>
			</g>
			<g>
				<path class="st0" d="M1772.12,1471.7h-246.53c-3.47,0-6.28-2.81-6.28-6.28v-17.93c0-3.47,2.81-6.28,6.28-6.28h246.53
					c3.47,0,6.28,2.81,6.28,6.28v17.93C1778.4,1468.89,1775.58,1471.7,1772.12,1471.7z"/>
			</g>
		</g>
		<g>
			<path class="st0" d="M169.95,1610.15l3.79-4.53c1.52-1.82,4.17-2.29,6.16-1.01c5.39,3.46,11.23,5.26,17.32,5.26
				c4.73,0,7.27-1.64,7.27-4.37v-0.18c0-2.64-2.09-4.09-10.73-6.1c-13.55-3.1-24-6.92-24-20.02v-0.18
				c0-11.83,9.37-20.39,24.64-20.39c8.73,0,15.92,1.9,22,5.55c2.37,1.42,2.99,4.6,1.4,6.86l-3.4,4.8c-1.4,1.98-4.07,2.68-6.18,1.5
				c-4.79-2.66-9.77-4.05-14.27-4.05c-4.27,0-6.36,1.82-6.36,4.1v0.18c0,2.91,2.18,4.19,11,6.19c14.64,3.19,23.73,7.92,23.73,19.84
				v0.18c0,13.02-10.27,20.75-25.73,20.75c-9.39,0-18.4-2.46-25.67-7.34C168.56,1615.62,168.13,1612.32,169.95,1610.15z"/>
			<path class="st0" d="M272.1,1559.72h41.62c2.64,0,4.78,2.14,4.78,4.79v5.44c0,2.64-2.14,4.79-4.78,4.79h-24.17
				c-2.64,0-4.78,2.14-4.78,4.79v0.07c0,2.64,2.14,4.79,4.78,4.79h20.98c2.64,0,4.78,2.14,4.78,4.79v4.35
				c0,2.64-2.14,4.79-4.78,4.79h-20.98c-2.64,0-4.78,2.14-4.78,4.79v0.53c0,2.64,2.14,4.79,4.78,4.79h24.62
				c2.64,0,4.78,2.14,4.78,4.79v5.44c0,2.64-2.14,4.79-4.78,4.79H272.1c-2.64,0-4.78-2.14-4.78-4.79v-54.14
				C267.31,1561.86,269.46,1559.72,272.1,1559.72z"/>
			<path class="st0" d="M365.43,1564.51c0-2.64,2.14-4.79,4.78-4.79h25.31c9.73,0,16.46,2.55,20.73,6.92
				c3.73,3.64,5.64,8.56,5.64,14.84v0.18c0,7.91-3.42,13.66-8.94,17.34c-2.17,1.44-2.63,4.45-1.16,6.6l7.07,10.34
				c2.17,3.18-0.1,7.49-3.95,7.49h-8.73c-1.6,0-3.1-0.8-3.98-2.14l-11.4-17.16h-0.18h-2.76c-2.64,0-4.78,2.14-4.78,4.79v9.72
				c0,2.64-2.14,4.79-4.78,4.79h-8.07c-2.64,0-4.78-2.14-4.78-4.79V1564.51z M394.7,1590.3c6,0,9.46-2.91,9.46-7.55v-0.18
				c0-5.01-3.64-7.55-9.55-7.55h-6.76c-2.64,0-4.78,2.14-4.78,4.79v5.71c0,2.64,2.14,4.79,4.78,4.79H394.7z"/>
			<path class="st0" d="M466.41,1559.72h9.28c2.02,0,3.82,1.27,4.5,3.17l8.82,24.6c1.52,4.23,7.49,4.23,9,0l8.82-24.6
				c0.68-1.9,2.48-3.17,4.5-3.17h8.92c3.39,0,5.7,3.43,4.44,6.58l-21.97,54.6c-0.73,1.81-2.49,3-4.44,3h-9.91
				c-1.95,0-3.71-1.19-4.44-3l-21.97-54.6C460.71,1563.15,463.02,1559.72,466.41,1559.72z"/>
			<path class="st0" d="M574.09,1559.72h8.16c2.64,0,4.78,2.14,4.78,4.79v54.14c0,2.64-2.14,4.79-4.78,4.79h-8.16
				c-2.64,0-4.78-2.14-4.78-4.79v-54.14C569.3,1561.86,571.44,1559.72,574.09,1559.72z"/>
			<path class="st0" d="M640.02,1559.72h9.34c1.48,0,2.87,0.68,3.77,1.85l16.19,20.82c2.8,3.6,8.56,1.62,8.56-2.94v-14.94
				c0-2.64,2.14-4.79,4.78-4.79h7.89c2.64,0,4.78,2.14,4.78,4.79v54.14c0,2.64-2.14,4.79-4.78,4.79h-8.33
				c-1.48,0-2.87-0.68-3.77-1.85l-17.19-22.1c-2.8-3.6-8.56-1.62-8.56,2.94v16.22c0,2.64-2.14,4.79-4.78,4.79h-7.89
				c-2.64,0-4.78-2.14-4.78-4.79v-54.14C635.24,1561.86,637.38,1559.72,640.02,1559.72z"/>
			<path class="st0" d="M740.64,1591.76v-0.18c0-18.57,14.55-33.13,34.28-33.13c8.96,0,15.82,2.22,21.66,6.1
				c2.35,1.56,2.77,4.85,0.97,7.02l-4.29,5.16c-1.54,1.85-4.22,2.27-6.24,0.96c-3.51-2.26-7.27-3.5-12-3.5
				c-9.18,0-16.27,7.74-16.27,17.48v0.18c0,10.29,7.18,17.66,17.27,17.66c2.77,0,5.13-0.38,7.16-1.13c1.85-0.68,3.03-2.49,3.03-4.46
				l0,0c0-2.64-2.14-4.79-4.78-4.79h-2.98c-2.64,0-4.78-2.14-4.78-4.79v-3.35c0-2.64,2.14-4.79,4.78-4.79h19.71
				c2.64,0,4.78,2.14,4.78,4.79v21.53c0,1.54-0.74,2.98-1.98,3.89c-6.54,4.78-15.2,8.29-25.66,8.29
				C755.46,1624.71,740.64,1611.06,740.64,1591.76z"/>
			<path class="st0" d="M908.46,1591.76v-0.18c0-18.57,14.55-33.13,34.28-33.13c8.96,0,15.82,2.22,21.66,6.1
				c2.35,1.56,2.77,4.85,0.97,7.02l-4.29,5.16c-1.54,1.85-4.22,2.27-6.24,0.96c-3.51-2.26-7.27-3.5-12-3.5
				c-9.18,0-16.27,7.74-16.27,17.48v0.18c0,10.29,7.18,17.66,17.27,17.66c2.77,0,5.13-0.38,7.16-1.13c1.85-0.68,3.03-2.49,3.03-4.46
				l0,0c0-2.64-2.14-4.79-4.78-4.79h-2.98c-2.64,0-4.78-2.14-4.78-4.79v-3.35c0-2.64,2.14-4.79,4.78-4.79h19.71
				c2.64,0,4.78,2.14,4.78,4.79v21.53c0,1.54-0.74,2.98-1.98,3.89c-6.54,4.78-15.2,8.29-25.66,8.29
				C923.29,1624.71,908.46,1611.06,908.46,1591.76z"/>
			<path class="st0" d="M1014.28,1591.76v-0.18c0-18.3,14.73-33.13,34.37-33.13s34.19,14.66,34.19,32.95v0.18
				c0,18.3-14.73,33.13-34.37,33.13C1028.82,1624.71,1014.28,1610.05,1014.28,1591.76z M1064.83,1591.76v-0.18
				c0-9.19-6.64-17.2-16.37-17.2c-9.64,0-16.09,7.83-16.09,17.02v0.18c0,9.19,6.64,17.2,16.27,17.2
				C1058.37,1608.78,1064.83,1600.95,1064.83,1591.76z"/>
			<path class="st0" d="M1125.01,1591.76v-0.18c0-18.3,14.73-33.13,34.37-33.13c19.64,0,34.19,14.66,34.19,32.95v0.18
				c0,18.3-14.73,33.13-34.37,33.13C1139.55,1624.71,1125.01,1610.05,1125.01,1591.76z M1175.56,1591.76v-0.18
				c0-9.19-6.64-17.2-16.37-17.2c-9.64,0-16.09,7.83-16.09,17.02v0.18c0,9.19,6.64,17.2,16.27,17.2
				C1169.1,1608.78,1175.56,1600.95,1175.56,1591.76z"/>
			<path class="st0" d="M1238.7,1564.51c0-2.64,2.14-4.79,4.78-4.79h19.77c22.73,0,35.91,13.11,35.91,31.49v0.18
				c0,18.39-13.37,32.04-36.28,32.04h-19.4c-2.64,0-4.78-2.14-4.78-4.79V1564.51z M1263.52,1607.78c10.55,0,17.55-5.83,17.55-16.11
				v-0.18c0-10.19-7-16.11-17.55-16.11h-2.4c-2.64,0-4.78,2.14-4.78,4.79v22.83c0,2.64,2.14,4.79,4.78,4.79H1263.52z"/>
			<path class="st0" d="M1416.92,1575.19h-9.53c-2.64,0-4.78-2.14-4.78-4.79v-5.9c0-2.64,2.14-4.79,4.78-4.79h46.26
				c2.64,0,4.78,2.14,4.78,4.79v5.9c0,2.64-2.14,4.79-4.78,4.79h-9.53c-2.64,0-4.78,2.14-4.78,4.79v38.67
				c0,2.64-2.14,4.79-4.78,4.79h-8.07c-2.64,0-4.78-2.14-4.78-4.79v-38.67C1421.71,1577.33,1419.57,1575.19,1416.92,1575.19z"/>
			<path class="st0" d="M1505.85,1559.72h8.16c2.64,0,4.78,2.14,4.78,4.79v54.14c0,2.64-2.14,4.79-4.78,4.79h-8.16
				c-2.64,0-4.78-2.14-4.78-4.79v-54.14C1501.07,1561.86,1503.21,1559.72,1505.85,1559.72z"/>
			<path class="st0" d="M1571.79,1559.72h11.18c1.66,0,3.2,0.86,4.07,2.28l9.71,15.78c1.87,3.04,6.28,3.04,8.14,0l9.71-15.78
				c0.87-1.41,2.41-2.28,4.07-2.28h11.18c2.64,0,4.78,2.14,4.78,4.79v54.14c0,2.64-2.14,4.79-4.78,4.79h-7.98
				c-2.64,0-4.78-2.14-4.78-4.79v-15.72c0-4.76-6.19-6.61-8.79-2.62l-7.49,11.47h-0.36l-7.4-11.32c-2.6-3.98-8.79-2.14-8.79,2.62
				v15.56c0,2.64-2.14,4.79-4.78,4.79h-7.71c-2.64,0-4.78-2.14-4.78-4.79v-54.14C1567.01,1561.86,1569.15,1559.72,1571.79,1559.72z"
				/>
			<path class="st0" d="M1687.7,1559.72h41.62c2.64,0,4.78,2.14,4.78,4.79v5.44c0,2.64-2.14,4.79-4.78,4.79h-24.17
				c-2.64,0-4.78,2.14-4.78,4.79v0.07c0,2.64,2.14,4.79,4.78,4.79h20.98c2.64,0,4.78,2.14,4.78,4.79v4.35
				c0,2.64-2.14,4.79-4.78,4.79h-20.98c-2.64,0-4.78,2.14-4.78,4.79v0.53c0,2.64,2.14,4.79,4.78,4.79h24.62
				c2.64,0,4.78,2.14,4.78,4.79v5.44c0,2.64-2.14,4.79-4.78,4.79h-42.08c-2.64,0-4.78-2.14-4.78-4.79v-54.14
				C1682.92,1561.86,1685.06,1559.72,1687.7,1559.72z"/>
			<path class="st0" d="M1778.87,1610.15l3.79-4.53c1.52-1.82,4.17-2.29,6.16-1.01c5.39,3.46,11.23,5.26,17.32,5.26
				c4.73,0,7.27-1.64,7.27-4.37v-0.18c0-2.64-2.09-4.09-10.73-6.1c-13.55-3.1-24-6.92-24-20.02v-0.18
				c0-11.83,9.36-20.39,24.64-20.39c8.73,0,15.92,1.9,22,5.55c2.37,1.42,2.99,4.6,1.4,6.86l-3.4,4.8c-1.4,1.98-4.07,2.68-6.18,1.5
				c-4.79-2.66-9.76-4.05-14.27-4.05c-4.27,0-6.37,1.82-6.37,4.1v0.18c0,2.91,2.18,4.19,11,6.19c14.64,3.19,23.73,7.92,23.73,19.84
				v0.18c0,13.02-10.27,20.75-25.73,20.75c-9.39,0-18.4-2.46-25.67-7.34C1777.48,1615.62,1777.05,1612.32,1778.87,1610.15z"/>
		</g>
	</g>
	<g>
		<path class="st0" d="M1221.04,864.67c-3.28-40.57-25.59-76.28-70.22-112.39c-23.82-19.27-51.57-36.9-78.41-53.94
			c-68.58-43.55-133.38-84.68-131.92-148.48c0.49-21.53,8.49-46.17,21.42-65.89c11.92-18.19,26.5-29.42,38.14-29.42h0.27
			c20.88,0.32,49.09,36.52,60.24,96.58c0,0,0,0,0,0.01c0.6,5.02,6.05,42.19,39.09,66.96c32.65,24.5,105.5,45.74,108.58,46.63
			c0.93,0.28,1.89,0.41,2.85,0.41c3.18,0,6.28-1.48,8.28-4.24c1.52-2.09,2.09-4.72,1.85-7.29c-5.66-59.83-31.84-115.3-73.75-156.21
			c-41.22-40.26-93.36-62.73-146.81-63.27h-0.05c-0.01,0-0.01,0-0.01,0c-0.01,0-0.01,0-0.03,0h-0.36
			c-27.58-0.22-54.72,5.41-80.87,16.75c-3.55,1.54-5.26,5.67-3.79,9.25c0.72,1.76,1.41,3.54,2.06,5.34c1.39,3.87,5.78,5.8,9.56,4.16
			c3.52-1.53,7.07-2.94,10.65-4.24c5.78-2.09,11.18,3.87,8.46,9.38c-6.71,13.61-16.02,34.39-21.55,52.05
			c-2.71,8.68-4.51,16.61-4.65,22.58c0,0.14-0.01,0.27,0,0.41c-1.44,75.07,71.18,121.18,141.39,165.78
			c26.36,16.73,53.61,34.03,76.52,52.58c39.98,32.35,59.9,63.54,62.7,98.16c3.37,41.74-17.78,92.62-55.21,132.79
			c-24.28,26.07-52.46,45.01-82.52,55.93c-5.78,2.09-11.18-3.88-8.46-9.39c10.01-20.28,25.78-56.5,26.19-74.62
			c1.71-75.32-71.05-121.51-141.39-166.18c-26.36-16.73-53.61-34.03-76.52-52.58c-39.98-32.35-59.9-63.54-62.7-98.17
			c0-0.02,0-0.05-0.01-0.07c-0.31-3.81-3.46-6.79-7.28-6.71c-1.04,0.02-2.08,0.04-3.12,0.04c-0.91,0-1.82-0.01-2.73-0.03
			c-4.21-0.08-7.59,3.5-7.28,7.69c0.02,0.24,0.04,0.48,0.06,0.72c3.28,40.58,25.59,76.29,70.22,112.41
			c23.82,19.27,51.57,36.9,78.41,53.94c68.58,43.54,133.37,84.68,131.92,148.48c-0.48,21.53-8.49,46.17-21.42,65.89
			c-11.92,18.18-26.5,29.42-38.14,29.42h-0.27c-20.88-0.32-49.09-36.52-60.24-96.58v-0.01c-0.6-5.02-6.05-42.19-39.09-66.96
			c-32.65-24.5-105.5-45.75-108.58-46.64c-3.26-0.93-6.75-0.2-9.34,1.94c-2.6,2.16-3.98,5.45-3.66,8.82
			c5.58,59.97,31.78,115.58,73.78,156.58c41.24,40.27,93.4,62.74,146.87,63.26h0.09c0.1,0.01,0.19,0.01,0.29,0.01h1.54
			c29.87,0,59.27-6.88,87.4-20.46c25.81-12.46,50.33-30.72,70.92-52.81C1201.64,968.8,1224.85,911.96,1221.04,864.67z
			 M1064.17,466.9c65.19,25.21,116.72,86.56,132.63,162.02c1.1,5.17-3.87,9.56-8.87,7.84c-23.73-8.16-57.81-21.33-76.04-35
			c-27.28-20.46-31.02-52.67-31.07-53.15c-0.03-0.28-0.06-0.55-0.11-0.83c-5.12-27.79-13.86-52.14-24.87-71.1
			C1052.59,471.1,1058.16,464.58,1064.17,466.9z M936.55,1053.52c-65.18-25.2-116.71-86.56-132.61-162.01
			c-1.1-5.17,3.87-9.56,8.87-7.84c23.73,8.16,57.81,21.32,76.04,35c27.29,20.46,31.02,52.67,31.07,53.15
			c0.03,0.28,0.06,0.55,0.11,0.83c5.12,27.79,13.86,52.14,24.87,71.1C948.14,1049.32,942.56,1055.84,936.55,1053.52z"/>
		<path class="st1" d="M767.99,376.07c63.69,0,115.5,51.81,115.5,115.5s-51.81,115.5-115.5,115.5s-115.5-51.81-115.5-115.5
			S704.3,376.07,767.99,376.07 M754.11,436.67c2.07,0,3.82-1.69,3.82-3.84v-25.03c0-2.31-1.89-3.83-3.85-3.83
			c-0.96,0-1.95,0.37-2.74,1.18c-5.25,5.43-10.17,13.26-14.27,23.06c-0.87,2.07,0.24,4.46,2.38,5.13c4.58,1.44,9.28,2.54,14.08,3.27
			C753.72,436.66,753.92,436.67,754.11,436.67 M782.17,436.67c0.19,0,0.39-0.01,0.58-0.04c4.79-0.73,9.49-1.83,14.07-3.27
			c2.14-0.67,3.24-3.06,2.38-5.13c-4.09-9.8-9.01-17.63-14.26-23.05c-0.79-0.82-1.77-1.18-2.74-1.18c-1.97,0-3.85,1.52-3.85,3.83
			v25.01C778.35,434.98,780.1,436.67,782.17,436.67 M820.62,421.06c0.75,0,1.5-0.22,2.17-0.69c0.03-0.02,0.06-0.04,0.09-0.06
			c2.15-1.52,2.22-4.71,0.07-6.24c-0.09-0.06-0.18-0.13-0.26-0.19c-0.7-0.49-1.44-0.71-2.16-0.71c-2.54,0-4.75,2.72-3.48,5.47
			c0.03,0.06,0.06,0.13,0.09,0.19C817.79,420.25,819.19,421.06,820.62,421.06 M715.36,421.06c1.43,0,2.83-0.81,3.48-2.23
			c0.03-0.06,0.06-0.12,0.09-0.19c1.27-2.75-0.94-5.47-3.48-5.47c-0.72,0-1.46,0.22-2.16,0.71c-0.09,0.06-0.18,0.12-0.26,0.19
			c-2.14,1.52-2.07,4.71,0.07,6.24c0.03,0.02,0.06,0.04,0.09,0.06C713.86,420.84,714.61,421.06,715.36,421.06 M677.51,481.23h24.24
			c2.03,0,3.69-1.59,3.82-3.62c0.69-11.13,2.22-21.89,4.53-32.02c0.37-1.63-0.35-3.28-1.77-4.15c-3.82-2.31-7.53-4.85-11.09-7.62
			c-0.69-0.53-1.5-0.79-2.31-0.79c-1.17,0-2.32,0.53-3.07,1.54c-9.11,12.17-15.38,26.58-17.81,42.25c-0.36,2.31,1.45,4.4,3.79,4.4
			 M834.52,481.23h23.63c2.34,0,4.15-2.09,3.79-4.41c-2.43-15.67-8.69-30.08-17.81-42.24c-0.75-1-1.91-1.54-3.07-1.54
			c-0.81,0-1.62,0.26-2.31,0.79c-3.56,2.77-7.27,5.31-11.09,7.62c-1.43,0.86-2.14,2.52-1.77,4.15c2.3,10.12,3.83,20.89,4.53,32.02
			c0.13,2.03,1.78,3.62,3.82,3.62 M729.85,481.23h24.26c2.11,0,3.82-1.71,3.82-3.82v-16.38c0-1.93-1.43-3.57-3.34-3.79
			c-7.09-0.82-14.03-2.28-20.76-4.37c-0.38-0.12-0.76-0.17-1.13-0.17c-1.78,0-3.39,1.26-3.74,3.1c-1.28,6.68-2.22,13.8-2.75,21.31
			c-0.16,2.22,1.59,4.12,3.82,4.12 M782.18,481.23h24.07c2.23,0,3.97-1.9,3.82-4.12c-0.53-7.51-1.47-14.63-2.75-21.31
			c-0.35-1.85-1.97-3.1-3.74-3.1c-0.37,0-0.75,0.06-1.13,0.17c-6.73,2.08-13.67,3.54-20.75,4.37c-1.91,0.22-3.34,1.87-3.34,3.79
			v16.38C778.35,479.51,780.06,481.23,782.18,481.23 M841.06,549.84c1.17,0,2.32-0.53,3.07-1.54c9.11-12.17,15.38-26.58,17.81-42.24
			c0.36-2.32-1.45-4.41-3.79-4.41h-23.92c-2.03,0-3.69,1.59-3.82,3.62c-0.69,11.13-2.22,21.89-4.53,32.02
			c-0.37,1.63,0.35,3.28,1.77,4.15c3.82,2.31,7.53,4.85,11.09,7.62C839.44,549.58,840.25,549.84,841.06,549.84 M803.58,530.18
			c1.78,0,3.39-1.26,3.74-3.1c1.28-6.68,2.22-13.8,2.75-21.31c0.16-2.22-1.59-4.12-3.82-4.12h-24.08c-2.11,0-3.82,1.71-3.82,3.82
			v16.38c0,1.93,1.43,3.57,3.34,3.79c7.09,0.82,14.03,2.28,20.75,4.37C802.83,530.13,803.21,530.18,803.58,530.18 M732.69,530.18
			c0.37,0,0.75-0.06,1.13-0.17c6.73-2.08,13.67-3.54,20.76-4.37c1.91-0.22,3.34-1.87,3.34-3.79v-16.38c0-2.11-1.71-3.82-3.82-3.82
			h-24.09c-2.23,0-3.97,1.9-3.82,4.12c0.53,7.51,1.47,14.63,2.75,21.31C729.3,528.93,730.92,530.18,732.69,530.18 M694.92,549.84
			c0.81,0,1.62-0.26,2.31-0.79c3.56-2.77,7.27-5.31,11.09-7.62c1.43-0.86,2.14-2.52,1.77-4.15c-2.3-10.12-3.83-20.89-4.53-32.02
			c-0.13-2.03-1.78-3.62-3.82-3.62h-23.92c-2.34,0-4.15,2.09-3.79,4.41c2.43,15.67,8.69,30.08,17.81,42.24
			C692.6,549.31,693.76,549.84,694.92,549.84 M754.08,579.17c1.97,0,3.85-1.52,3.85-3.83v-25.02c0-2.14-1.75-3.84-3.82-3.84
			c-0.19,0-0.39,0.01-0.58,0.04c-4.79,0.73-9.5,1.83-14.08,3.27c-2.14,0.67-3.24,3.06-2.38,5.13c4.1,9.8,9.01,17.64,14.27,23.06
			C752.13,578.81,753.11,579.17,754.08,579.17 M782.21,579.16c0.96,0,1.95-0.37,2.74-1.18c5.25-5.43,10.16-13.25,14.26-23.05
			c0.87-2.07-0.24-4.46-2.38-5.13c-4.58-1.44-9.28-2.53-14.07-3.27c-0.2-0.03-0.39-0.04-0.58-0.04c-2.07,0-3.82,1.69-3.82,3.84
			v25.01C778.35,577.64,780.24,579.16,782.21,579.16 M820.53,569.98c0.72,0,1.46-0.22,2.16-0.71c0.09-0.06,0.18-0.12,0.26-0.19
			c2.14-1.52,2.07-4.71-0.07-6.24c-0.03-0.02-0.06-0.04-0.09-0.06c-0.67-0.47-1.42-0.69-2.17-0.69c-1.43,0-2.83,0.81-3.48,2.23
			c-0.03,0.06-0.06,0.12-0.09,0.19C815.79,567.26,817.99,569.98,820.53,569.98 M715.45,569.98c2.54,0,4.74-2.72,3.48-5.47
			c-0.03-0.06-0.06-0.12-0.09-0.19c-0.65-1.42-2.05-2.23-3.48-2.23c-0.75,0-1.5,0.22-2.17,0.69c-0.03,0.02-0.06,0.04-0.09,0.06
			c-2.15,1.52-2.22,4.71-0.07,6.24c0.09,0.06,0.18,0.12,0.26,0.19C713.99,569.76,714.73,569.98,715.45,569.98"/>
		<g>
			<path class="st0" d="M555.24,878.38L555.24,878.38c0,2.22,1.8,4.01,4.01,4.01h17.17c2.22,0,4.01,1.8,4.01,4.01v3.45
				c0,2.22-1.8,4.01-4.01,4.01h-17.17c-2.22,0-4.01,1.8-4.01,4.01v1.05c0,2.22,1.8,4.01,4.01,4.01h19.72c2.22,0,4.01,1.8,4.01,4.01
				v3.45c0,2.22-1.8,4.01-4.01,4.01h-32.54c-2.22,0-4.01-1.8-4.01-4.01v-43.48c0-2.22,1.8-4.01,4.01-4.01h32.54
				c2.22,0,4.01,1.8,4.01,4.01v3.45c0,2.22-1.8,4.01-4.01,4.01h-19.72C557.03,874.37,555.24,876.17,555.24,878.38z"/>
			<path class="st0" d="M590.23,903.51l2.13-2.56c1.29-1.55,3.55-1.92,5.24-0.8c4.28,2.83,8.98,4.43,14.12,4.43
				c4.8,0,7.27-1.95,7.27-4.72c0-3.07-2.4-3.75-9.9-5.55c-11.02-2.47-19.19-5.47-19.19-15.82c0-9.9,7.95-16.49,19.72-16.49
				c6.91,0,12.62,1.59,17.43,4.58c1.95,1.21,2.43,3.84,1.1,5.71l-1.95,2.74c-1.21,1.69-3.51,2.17-5.3,1.12
				c-3.85-2.26-7.87-3.43-11.65-3.43c-4.12,0-6.45,1.95-6.45,4.5c0,3.15,2.47,4.2,10.12,5.85c11.55,2.47,18.97,5.77,18.97,15.44
				c0,10.35-7.87,16.79-20.62,16.79c-7.56,0-14.55-2.05-20.27-5.93C589.07,908.05,588.73,905.31,590.23,903.51z"/>
			<path class="st0" d="M646.78,874.37h-7.65c-2.22,0-4.01-1.8-4.01-4.01v-3.45c0-2.22,1.8-4.01,4.01-4.01h36.06
				c2.22,0,4.01,1.8,4.01,4.01v3.45c0,2.22-1.8,4.01-4.01,4.01h-7.57c-2.22,0-4.01,1.8-4.01,4.01v32.01c0,2.22-1.8,4.01-4.01,4.01
				h-4.8c-2.22,0-4.01-1.8-4.01-4.01v-32.01C650.79,876.17,648.99,874.37,646.78,874.37z"/>
			<path class="st0" d="M678.45,907.43c0-4.05,3.45-7.57,7.95-7.57c4.12,0,7.57,3.52,7.57,7.57c0,4.35-3.45,7.87-7.57,7.87
				C681.89,915.31,678.45,911.78,678.45,907.43z"/>
		</g>
		<g>
			<path class="st0" d="M1310.07,913.44c0-1.43,0.67-2.78,1.82-3.63l25.35-18.96c8.24-6.2,10.59-10.27,10.59-14.76
				c0-5.03-4.38-8.24-9.73-8.24c-5.6,0-10.05,2.22-14.53,6.24c-1.77,1.59-4.49,1.49-6.18-0.19l-5.19-5.14
				c-1.75-1.74-1.84-4.6-0.1-6.35c7.22-7.29,15.84-11.14,26.43-11.14c16.47,0,28.02,10.05,28.02,24.07c0,9.73-4.07,17.33-16.9,26.1
				l0,0c-3.6,2.56-1.78,8.24,2.63,8.24h10.47c2.51,0,4.54,2.03,4.54,4.54v7.29c0,2.51-2.03,4.54-4.54,4.54h-48.15
				c-2.51,0-4.54-2.03-4.54-4.54V913.44z"/>
			<path class="st0" d="M1381.51,913.44c0-1.43,0.67-2.78,1.82-3.63l25.35-18.96c8.24-6.2,10.59-10.27,10.59-14.76
				c0-5.03-4.38-8.24-9.73-8.24c-5.6,0-10.05,2.22-14.53,6.24c-1.77,1.59-4.49,1.49-6.18-0.19l-5.19-5.14
				c-1.75-1.74-1.84-4.6-0.1-6.35c7.22-7.29,15.84-11.14,26.43-11.14c16.47,0,28.02,10.05,28.02,24.07c0,9.73-4.07,17.33-16.9,26.1
				l0,0c-3.6,2.56-1.78,8.24,2.63,8.24h10.47c2.51,0,4.54,2.03,4.54,4.54v7.29c0,2.51-2.03,4.54-4.54,4.54h-48.15
				c-2.51,0-4.54-2.03-4.54-4.54V913.44z"/>
		</g>
	</g>
</g>
</svg>
