<?xml version="1.0" encoding="utf-8"?>
<!-- Generator: Adobe Illustrator 25.2.1, SVG Export Plug-In . SVG Version: 6.00 Build 0)  -->
<svg version="1.1" id="Camada_1" xmlns="http://www.w3.org/2000/svg" xmlns:xlink="http://www.w3.org/1999/xlink" x="0px" y="0px"
	 viewBox="0 0 2000 2000" style="enable-background:new 0 0 2000 2000;" xml:space="preserve">
<style type="text/css">
	.st0{fill:#FFFFFF;}
	.st1{fill:#B42127;}
</style>
<g>
	<path class="st0" d="M1592.97,1268.13c-7.12-88.03-55.54-165.54-152.39-243.91c-51.69-41.83-111.91-80.08-170.17-117.07
		c-148.84-94.52-289.45-183.77-286.29-322.22c1.05-46.73,18.42-100.2,46.48-142.99c25.87-39.47,57.51-63.85,82.77-63.85h0.58
		c45.32,0.69,106.54,79.25,130.72,209.59c0,0,0,0,0,0.03c1.3,10.89,13.13,91.55,84.82,145.32
		c70.86,53.16,228.95,99.25,235.63,101.19c2.02,0.61,4.1,0.89,6.18,0.89c6.9,0,13.63-3.21,17.98-9.2
		c3.29-4.53,4.54-10.25,4.02-15.82c-12.27-129.83-69.09-250.22-160.06-339c-89.45-87.37-202.61-136.12-318.59-137.32h-0.11
		c-0.03,0-0.03,0-0.03,0c-0.03,0-0.03,0-0.06,0h-0.78c-59.86-0.49-118.75,11.74-175.5,36.35c-7.71,3.34-11.41,12.29-8.22,20.07
		c1.57,3.82,3.05,7.69,4.46,11.59c3.03,8.4,12.55,12.59,20.75,9.03c7.64-3.31,15.34-6.38,23.12-9.2
		c12.55-4.54,24.27,8.39,18.37,20.36c-14.57,29.53-34.77,74.63-46.76,112.97c-5.87,18.84-9.78,36.04-10.08,49
		c0,0.3-0.03,0.58,0,0.89c-3.13,162.91,154.46,262.97,306.85,359.76c57.2,36.32,116.35,73.85,166.07,114.1
		c86.76,70.2,130,137.9,136.07,213.02c7.31,90.58-38.59,201-119.81,288.18c-52.69,56.57-113.85,97.67-179.09,121.39
		c-12.55,4.54-24.27-8.42-18.37-20.39c21.72-44.02,55.96-122.61,56.84-161.94c3.71-163.47-154.19-263.69-306.85-360.64
		c-57.2-36.32-116.35-73.85-166.07-114.1c-86.76-70.2-130-137.9-136.07-213.05c0-0.05-0.01-0.1-0.01-0.15
		c-0.67-8.27-7.5-14.74-15.79-14.55c-2.25,0.05-4.51,0.08-6.77,0.08c-1.98,0-3.96-0.02-5.93-0.06c-9.13-0.18-16.48,7.59-15.8,16.7
		c0.04,0.52,0.08,1.04,0.12,1.56c7.12,88.06,55.54,165.57,152.39,243.94c51.69,41.83,111.91,80.08,170.17,117.07
		c148.84,94.49,289.42,183.77,286.29,322.22c-1.05,46.73-18.42,100.2-46.48,142.99c-25.87,39.45-57.51,63.85-82.77,63.85h-0.58
		c-45.32-0.69-106.54-79.25-130.72-209.59v-0.03c-1.3-10.89-13.13-91.55-84.82-145.32c-70.86-53.16-228.95-99.28-235.63-101.22
		c-7.06-2.02-14.65-0.44-20.28,4.21c-5.65,4.68-8.64,11.83-7.95,19.14c12.11,130.14,68.98,250.84,160.11,339.81
		c89.5,87.4,202.69,136.15,318.73,137.29h0.19c0.22,0.03,0.42,0.03,0.64,0.03h3.35c64.82,0,128.62-14.93,189.67-44.41
		c56.01-27.04,109.23-66.68,153.91-114.6C1550.86,1494.09,1601.25,1370.74,1592.97,1268.13z M1252.55,404.9
		c141.47,54.71,253.3,187.84,287.82,351.61c2.38,11.22-8.39,20.75-19.25,17.01c-51.5-17.7-125.46-46.29-165.02-75.96
		c-59.2-44.41-67.31-114.3-67.43-115.35c-0.06-0.61-0.14-1.19-0.25-1.8c-11.11-60.31-30.08-113.16-53.96-154.3
		C1227.42,414.02,1239.5,399.86,1252.55,404.9z M975.59,1677.95c-141.44-54.68-253.27-187.84-287.79-351.59
		c-2.38-11.22,8.39-20.75,19.25-17.01c51.5,17.7,125.46,46.26,165.02,75.96c59.23,44.41,67.31,114.3,67.42,115.35
		c0.06,0.61,0.14,1.19,0.25,1.8c11.11,60.31,30.08,113.16,53.96,154.3C1000.74,1668.83,988.64,1682.99,975.59,1677.95z"/>
	<path class="st1" d="M656.8,250.89c138.21,0,250.66,112.44,250.66,250.66S795.01,752.2,656.8,752.2S406.15,639.76,406.15,501.54
		S518.59,250.89,656.8,250.89 M626.68,382.4c4.49,0,8.29-3.67,8.29-8.32v-54.31c0-5.02-4.09-8.32-8.36-8.32
		c-2.09,0-4.23,0.79-5.94,2.56c-11.4,11.78-22.08,28.77-30.97,50.05c-1.88,4.5,0.52,9.68,5.16,11.14c9.94,3.13,20.15,5.5,30.55,7.1
		C625.84,382.36,626.26,382.4,626.68,382.4 M687.58,382.39c0.42,0,0.84-0.03,1.27-0.1c10.4-1.59,20.6-3.97,30.53-7.09
		c4.65-1.46,7.04-6.65,5.16-11.14c-8.88-21.26-19.55-38.25-30.94-50.03c-1.71-1.77-3.85-2.56-5.94-2.56c-4.27,0-8.36,3.29-8.36,8.32
		v54.28C679.29,378.72,683.08,382.39,687.58,382.39 M771.02,348.51c1.62,0,3.27-0.48,4.71-1.5c0.06-0.05,0.13-0.09,0.19-0.14
		c4.66-3.3,4.81-10.23,0.16-13.53c-0.19-0.14-0.38-0.27-0.57-0.41c-1.52-1.07-3.13-1.54-4.68-1.54c-5.51,0-10.3,5.9-7.55,11.87
		c0.06,0.14,0.13,0.27,0.19,0.41C764.88,346.75,767.91,348.51,771.02,348.51 M542.59,348.51c3.11,0,6.14-1.76,7.56-4.85
		c0.06-0.13,0.12-0.27,0.19-0.41c2.75-5.97-2.04-11.87-7.55-11.87c-1.55,0-3.17,0.47-4.68,1.54c-0.19,0.14-0.38,0.27-0.57,0.41
		c-4.65,3.31-4.5,10.23,0.16,13.53c0.06,0.05,0.13,0.09,0.19,0.14C539.32,348.03,540.96,348.51,542.59,348.51 M460.45,479.09h52.61
		c4.41,0,8.01-3.45,8.28-7.85c1.51-24.15,4.83-47.51,9.83-69.48c0.8-3.53-0.75-7.13-3.85-9c-8.3-5.02-16.34-10.53-24.06-16.53
		c-1.49-1.16-3.26-1.72-5.01-1.72c-2.53,0-5.03,1.16-6.67,3.33c-19.77,26.41-33.37,57.69-38.64,91.69
		c-0.78,5.02,3.14,9.56,8.23,9.56 M801.17,479.09h51.28c5.09,0,9-4.54,8.22-9.57c-5.27-34-18.87-65.27-38.64-91.68
		c-1.63-2.18-4.14-3.33-6.67-3.33c-1.75,0-3.52,0.56-5.01,1.72c-7.73,6.01-15.77,11.51-24.07,16.53c-3.1,1.87-4.65,5.47-3.85,9
		c5,21.97,8.32,45.33,9.83,69.48c0.27,4.4,3.87,7.85,8.28,7.85 M574.02,479.09h52.64c4.58,0,8.3-3.72,8.3-8.3v-35.54
		c0-4.18-3.1-7.75-7.26-8.23c-15.39-1.78-30.45-4.96-45.06-9.48c-0.82-0.25-1.64-0.37-2.45-0.37c-3.86,0-7.36,2.73-8.12,6.74
		c-2.77,14.5-4.81,29.95-5.97,46.24c-0.34,4.82,3.45,8.94,8.28,8.94 M687.6,479.09h52.24c4.83,0,8.63-4.12,8.28-8.93
		c-1.15-16.3-3.2-31.75-5.97-46.25c-0.77-4.01-4.27-6.74-8.12-6.74c-0.81,0-1.63,0.12-2.45,0.37c-14.6,4.52-29.66,7.69-45.04,9.47
		c-4.15,0.48-7.26,4.05-7.26,8.23v35.54c0,4.58,3.72,8.3,8.3,8.3 M815.37,627.99c2.53,0,5.03-1.16,6.67-3.33
		c19.77-26.4,33.37-57.68,38.64-91.67c0.78-5.03-3.14-9.57-8.22-9.57h-51.9c-4.41,0-8.01,3.45-8.28,7.85
		c-1.51,24.14-4.83,47.51-9.83,69.48c-0.8,3.53,0.75,7.13,3.85,9c8.3,5.02,16.34,10.53,24.07,16.53
		C811.85,627.43,813.62,627.99,815.37,627.99 M734.03,585.33c3.86,0,7.36-2.73,8.12-6.74c2.77-14.5,4.81-29.96,5.97-46.25
		c0.34-4.82-3.46-8.93-8.28-8.93h-52.25c-4.58,0-8.3,3.72-8.3,8.3v35.54c0,4.18,3.1,7.75,7.26,8.23
		c15.38,1.78,30.44,4.96,45.04,9.47C732.4,585.21,733.22,585.33,734.03,585.33 M580.2,585.33c0.81,0,1.63-0.12,2.45-0.37
		c14.6-4.52,29.67-7.69,45.06-9.48c4.15-0.48,7.26-4.05,7.26-8.23v-35.54c0-4.58-3.72-8.3-8.3-8.3h-52.27
		c-4.83,0-8.63,4.12-8.28,8.93c1.15,16.29,3.2,31.75,5.97,46.25C572.84,582.6,576.34,585.33,580.2,585.33 M498.23,627.99
		c1.75,0,3.52-0.56,5.01-1.72c7.73-6.01,15.77-11.51,24.07-16.53c3.1-1.87,4.65-5.47,3.85-9c-5-21.97-8.32-45.33-9.83-69.48
		c-0.27-4.4-3.87-7.85-8.28-7.85h-51.9c-5.09,0-9,4.54-8.22,9.57c5.27,34,18.87,65.27,38.64,91.68
		C493.2,626.83,495.71,627.99,498.23,627.99 M626.6,691.64c4.27,0,8.36-3.29,8.36-8.32v-54.31c0-4.65-3.8-8.33-8.29-8.32
		c-0.42,0-0.84,0.03-1.26,0.1c-10.4,1.59-20.61,3.97-30.55,7.1c-4.65,1.46-7.04,6.65-5.16,11.14c8.89,21.28,19.56,38.27,30.97,50.05
		C622.38,690.85,624.51,691.64,626.6,691.64 M687.65,691.62c2.09,0,4.23-0.79,5.94-2.56c11.4-11.78,22.06-28.76,30.94-50.03
		c1.88-4.49-0.52-9.68-5.16-11.14c-9.94-3.13-20.14-5.5-30.53-7.09c-0.43-0.07-0.85-0.1-1.27-0.1c-4.49,0-8.29,3.67-8.29,8.32v54.28
		C679.29,688.32,683.38,691.62,687.65,691.62 M770.82,671.7c1.55,0,3.17-0.47,4.68-1.54c0.19-0.14,0.38-0.27,0.57-0.41
		c4.65-3.31,4.5-10.23-0.16-13.53c-0.06-0.05-0.13-0.09-0.19-0.14c-1.44-1.02-3.09-1.5-4.71-1.5c-3.11,0-6.14,1.76-7.56,4.85
		c-0.06,0.14-0.12,0.27-0.19,0.41C760.53,665.8,765.32,671.7,770.82,671.7 M542.78,671.7c5.51,0,10.3-5.9,7.55-11.87
		c-0.06-0.14-0.12-0.27-0.19-0.41c-1.41-3.08-4.45-4.85-7.56-4.85c-1.62,0-3.27,0.48-4.71,1.5c-0.06,0.05-0.13,0.09-0.19,0.14
		c-4.66,3.3-4.81,10.23-0.16,13.53c0.19,0.14,0.38,0.27,0.57,0.41C539.61,671.23,541.22,671.7,542.78,671.7"/>
</g>
</svg>
