<?xml version="1.0" encoding="utf-8"?>
<!-- Generator: Adobe Illustrator 25.2.1, SVG Export Plug-In . SVG Version: 6.00 Build 0)  -->
<svg version="1.1" id="Camada_1" xmlns="http://www.w3.org/2000/svg" xmlns:xlink="http://www.w3.org/1999/xlink" x="0px" y="0px"
	 viewBox="0 0 2000 2000" style="enable-background:new 0 0 2000 2000;" xml:space="preserve">
<style type="text/css">
	.st0{fill:#B42127;}
</style>
<path class="st0" d="M999.95,257.71c409.52,0,742.68,333.17,742.68,742.68s-333.17,742.68-742.68,742.68
	s-742.68-333.16-742.68-742.68S590.43,257.71,999.95,257.71 M910.69,647.36c13.31,0,24.56-10.89,24.56-24.67V461.78
	c0-14.88-12.13-24.64-24.78-24.64c-6.2,0-12.52,2.35-17.6,7.59c-33.79,34.9-65.41,85.26-91.75,148.3
	c-5.56,13.32,1.53,28.68,15.29,33.01c29.46,9.28,59.7,16.31,90.53,21.03C908.21,647.27,909.46,647.36,910.69,647.36 M1091.13,647.35
	c1.23,0,2.49-0.09,3.75-0.29c30.8-4.72,61.02-11.75,90.46-21.02c13.77-4.34,20.86-19.7,15.29-33.01
	c-26.32-63-57.92-113.34-91.69-148.23c-5.08-5.25-11.4-7.6-17.6-7.59c-12.64,0-24.78,9.76-24.78,24.64v160.84
	C1066.57,636.46,1077.82,647.35,1091.13,647.35 M1338.37,546.97c4.81,0,9.67-1.42,13.95-4.45c0.19-0.14,0.38-0.27,0.58-0.41
	c13.8-9.79,14.26-30.3,0.47-40.1c-0.57-0.4-1.13-0.8-1.7-1.21c-4.49-3.17-9.27-4.56-13.88-4.56c-16.32,0-30.51,17.47-22.37,35.17
	c0.19,0.4,0.37,0.81,0.56,1.21C1320.17,541.75,1329.16,546.97,1338.37,546.97 M661.53,546.97c9.21,0,18.19-5.22,22.39-14.36
	c0.18-0.4,0.37-0.8,0.55-1.21c8.14-17.7-6.05-35.17-22.37-35.17c-4.61,0-9.38,1.39-13.88,4.56c-0.57,0.4-1.13,0.8-1.7,1.2
	c-13.78,9.8-13.32,30.32,0.48,40.1c0.19,0.14,0.38,0.27,0.57,0.41C651.86,545.54,656.73,546.97,661.53,546.97 M418.16,933.86h155.87
	c13.06,0,23.72-10.22,24.53-23.25c4.47-71.54,14.3-140.77,29.12-205.87c2.38-10.47-2.22-21.12-11.41-26.68
	c-24.59-14.87-48.4-31.19-71.3-48.99c-4.42-3.43-9.65-5.08-14.85-5.08c-7.49,0-14.92,3.42-19.75,9.88
	c-58.59,78.25-98.88,170.92-114.5,271.66c-2.31,14.88,9.31,28.32,24.37,28.32 M1427.72,933.86h151.93
	c15.07,0,26.68-13.46,24.37-28.35c-15.62-100.73-55.91-193.4-114.49-271.63c-4.83-6.45-12.26-9.88-19.75-9.88
	c-5.2,0-10.43,1.65-14.85,5.08c-22.9,17.79-46.72,34.12-71.3,48.99c-9.18,5.55-13.79,16.21-11.41,26.67
	c14.81,65.09,24.65,134.32,29.12,205.87c0.81,13.03,11.48,23.25,24.53,23.25 M754.68,933.86h155.98c13.58,0,24.59-11.01,24.59-24.59
	V803.96c0-12.39-9.2-22.96-21.5-24.38c-45.59-5.29-90.23-14.69-133.5-28.08c-2.42-0.75-4.87-1.11-7.26-1.1
	c-11.43,0-21.8,8.08-24.07,19.96c-8.2,42.96-14.26,88.74-17.68,137.01c-1.01,14.29,10.22,26.5,24.54,26.5 M1091.2,933.86h154.79
	c14.31,0,25.56-12.19,24.55-26.47c-3.42-48.28-9.48-94.08-17.68-137.04c-2.27-11.88-12.64-19.96-24.07-19.96
	c-2.4,0-4.84,0.36-7.26,1.11c-43.25,13.38-87.88,22.79-133.45,28.07c-12.3,1.43-21.5,12-21.5,24.38v105.32
	c0,13.58,11.01,24.59,24.59,24.59 M1469.78,1375.04c7.49,0,14.92-3.42,19.75-9.88c58.58-78.23,98.87-170.9,114.49-271.63
	c2.31-14.89-9.3-28.35-24.37-28.35h-153.78c-13.06,0-23.72,10.22-24.53,23.25c-4.47,71.54-14.3,140.77-29.12,205.86
	c-2.38,10.47,2.22,21.12,11.41,26.68c24.59,14.87,48.4,31.19,71.31,48.99C1459.35,1373.39,1464.58,1375.04,1469.78,1375.04
	 M1228.78,1248.65c11.43,0,21.8-8.08,24.07-19.96c8.21-42.96,14.27-88.76,17.68-137.04c1.01-14.27-10.24-26.47-24.55-26.47h-154.83
	c-13.58,0-24.59,11.01-24.59,24.59v105.31c0,12.39,9.2,22.96,21.5,24.38c45.57,5.29,90.19,14.69,133.45,28.07
	C1223.95,1248.3,1226.39,1248.65,1228.78,1248.65 M772.98,1248.65c2.4,0,4.84-0.36,7.26-1.11c43.27-13.39,87.92-22.79,133.5-28.08
	c12.3-1.43,21.5-12,21.5-24.38v-105.31c0-13.58-11.01-24.59-24.59-24.59H755.77c-14.31,0-25.56,12.19-24.55,26.47
	c3.42,48.28,9.48,94.07,17.68,137.04C751.18,1240.57,761.55,1248.65,772.98,1248.65 M530.12,1375.04c5.2,0,10.43-1.65,14.85-5.08
	c22.9-17.79,46.72-34.12,71.3-48.99c9.18-5.55,13.79-16.21,11.41-26.68c-14.81-65.09-24.65-134.32-29.12-205.86
	c-0.81-13.03-11.48-23.25-24.53-23.25H420.25c-15.07,0-26.68,13.46-24.37,28.35c15.61,100.73,55.91,193.39,114.49,271.63
	C515.2,1371.62,522.63,1375.04,530.12,1375.04 M910.47,1563.64c12.64,0,24.78-9.76,24.78-24.64v-160.91
	c0-13.78-11.24-24.67-24.56-24.67c-1.23,0-2.49,0.09-3.75,0.29c-30.82,4.72-61.07,11.76-90.52,21.03
	c-13.77,4.34-20.86,19.7-15.29,33.01c26.34,63.04,57.96,113.4,91.75,148.29C897.95,1561.3,904.27,1563.64,910.47,1563.64
	 M1091.35,1563.58c6.2,0,12.53-2.35,17.6-7.59c33.76-34.89,65.36-85.22,91.68-148.23c5.56-13.32-1.53-28.68-15.29-33.01
	c-29.44-9.27-59.66-16.3-90.46-21.02c-1.26-0.19-2.51-0.29-3.75-0.29c-13.31,0-24.56,10.89-24.56,24.67v160.84
	C1066.57,1553.82,1078.71,1563.58,1091.35,1563.58 M1337.79,1504.55c4.61,0,9.38-1.39,13.88-4.56c0.57-0.4,1.13-0.8,1.7-1.2
	c13.79-9.8,13.32-30.31-0.47-40.1c-0.19-0.14-0.38-0.27-0.58-0.41c-4.28-3.03-9.15-4.45-13.95-4.45c-9.21,0-18.19,5.22-22.39,14.36
	c-0.18,0.4-0.37,0.8-0.55,1.21C1307.28,1487.08,1321.47,1504.55,1337.79,1504.55 M662.1,1504.55c16.32,0,30.51-17.47,22.37-35.17
	c-0.19-0.4-0.37-0.8-0.55-1.2c-4.19-9.14-13.18-14.36-22.39-14.36c-4.81,0-9.67,1.42-13.95,4.45c-0.19,0.14-0.38,0.27-0.57,0.41
	c-13.8,9.79-14.26,30.3-0.47,40.1c0.57,0.4,1.13,0.8,1.7,1.2C652.72,1503.16,657.5,1504.55,662.1,1504.55"/>
</svg>
